<svg xmlns="http://www.w3.org/2000/svg" viewBox="0 0 32 40" x="0px" y="0px"><defs><style>.cls-1{fill:none;}</style></defs><title>eye</title><g data-name="eye"><path class="cls-1" d="M16,9C10.52,9,5.75,14.22,4.27,16c1.48,1.78,6.25,7,11.73,7s10.25-5.22,11.73-7C26.25,14.22,21.48,9,16,9Zm0,13a5.83,5.83,0,0,1-5.64-6A5.83,5.83,0,0,1,16,10a5.83,5.83,0,0,1,5.64,6A5.83,5.83,0,0,1,16,22Z"/><ellipse class="cls-1" cx="16" cy="16" rx="3.64" ry="4"/><ellipse cx="16" cy="16" rx="3.64" ry="4"/><path d="M29.81,15.41C29.56,15.07,23.6,7,16,7S2.44,15.07,2.19,15.41a1,1,0,0,0,0,1.18C2.44,16.93,8.4,25,16,25s13.56-8.07,13.81-8.41A1,1,0,0,0,29.81,15.41ZM16,22a5.83,5.83,0,0,1-5.64-6A5.83,5.83,0,0,1,16,10a5.83,5.83,0,0,1,5.64,6A5.83,5.83,0,0,1,16,22Z"/></g><text x="0" y="47" fill="#000000" font-size="5px" font-weight="bold" font-family="'Helvetica Neue', Helvetica, Arial-Unicode, Arial, Sans-serif">Created by rizky ramadhan</text><text x="0" y="52" fill="#000000" font-size="5px" font-weight="bold" font-family="'Helvetica Neue', Helvetica, Arial-Unicode, Arial, Sans-serif">from the Noun Project</text></svg>